<mxfile host="app.diagrams.net" modified="2023-11-19T11:41:32.356Z" agent="Mozilla/5.0 (Windows NT 10.0; Win64; x64) AppleWebKit/537.36 (KHTML, like Gecko) Chrome/119.0.0.0 Safari/537.36 Edg/119.0.0.0" etag="rUoaxrClQbnXc_jJkY2k" version="22.1.3" type="github">
  <diagram id="C5RBs43oDa-KdzZeNtuy" name="Page-1">
    <mxGraphModel dx="978" dy="545" grid="1" gridSize="10" guides="1" tooltips="1" connect="1" arrows="1" fold="1" page="1" pageScale="1" pageWidth="827" pageHeight="1169" background="#6666FF" math="0" shadow="1">
      <root>
        <mxCell id="WIyWlLk6GJQsqaUBKTNV-0" />
        <mxCell id="WIyWlLk6GJQsqaUBKTNV-1" parent="WIyWlLk6GJQsqaUBKTNV-0" />
        <mxCell id="WIyWlLk6GJQsqaUBKTNV-2" value="" style="rounded=0;html=1;jettySize=auto;orthogonalLoop=1;fontSize=11;endArrow=block;endFill=0;endSize=8;strokeWidth=1;shadow=0;labelBackgroundColor=none;edgeStyle=orthogonalEdgeStyle;" parent="WIyWlLk6GJQsqaUBKTNV-1" edge="1">
          <mxGeometry relative="1" as="geometry">
            <mxPoint x="220" y="120" as="sourcePoint" />
            <mxPoint x="220" y="170" as="targetPoint" />
          </mxGeometry>
        </mxCell>
        <mxCell id="dmKS9OR7HiVcDCAen5_6-2" value=" Start Application " style="strokeWidth=2;html=1;shape=mxgraph.flowchart.start_1;whiteSpace=wrap;" vertex="1" parent="WIyWlLk6GJQsqaUBKTNV-1">
          <mxGeometry x="170" y="60" width="100" height="70" as="geometry" />
        </mxCell>
        <mxCell id="dmKS9OR7HiVcDCAen5_6-10" style="edgeStyle=orthogonalEdgeStyle;rounded=0;orthogonalLoop=1;jettySize=auto;html=1;exitX=0.5;exitY=1;exitDx=0;exitDy=0;" edge="1" parent="WIyWlLk6GJQsqaUBKTNV-1">
          <mxGeometry relative="1" as="geometry">
            <mxPoint x="238" y="270" as="sourcePoint" />
            <mxPoint x="238" y="270" as="targetPoint" />
          </mxGeometry>
        </mxCell>
        <mxCell id="dmKS9OR7HiVcDCAen5_6-36" value="" style="edgeStyle=orthogonalEdgeStyle;rounded=0;orthogonalLoop=1;jettySize=auto;html=1;" edge="1" parent="WIyWlLk6GJQsqaUBKTNV-1" source="dmKS9OR7HiVcDCAen5_6-29" target="dmKS9OR7HiVcDCAen5_6-35">
          <mxGeometry relative="1" as="geometry" />
        </mxCell>
        <mxCell id="dmKS9OR7HiVcDCAen5_6-29" value="&#xa;&lt;span style=&quot;color: rgb(0, 0, 0); font-family: Helvetica; font-size: 12px; font-style: normal; font-variant-ligatures: normal; font-variant-caps: normal; font-weight: 400; letter-spacing: normal; orphans: 2; text-align: center; text-indent: 0px; text-transform: none; widows: 2; word-spacing: 0px; -webkit-text-stroke-width: 0px; background-color: rgb(251, 251, 251); text-decoration-thickness: initial; text-decoration-style: initial; text-decoration-color: initial; float: none; display: inline !important;&quot;&gt;main.cpp&lt;/span&gt;&lt;br style=&quot;border-color: var(--border-color); color: rgb(0, 0, 0); font-family: Helvetica; font-size: 12px; font-style: normal; font-variant-ligatures: normal; font-variant-caps: normal; font-weight: 400; letter-spacing: normal; orphans: 2; text-align: center; text-indent: 0px; text-transform: none; widows: 2; word-spacing: 0px; -webkit-text-stroke-width: 0px; background-color: rgb(251, 251, 251); text-decoration-thickness: initial; text-decoration-style: initial; text-decoration-color: initial;&quot;&gt;&lt;span style=&quot;color: rgb(0, 0, 0); font-family: Helvetica; font-size: 12px; font-style: normal; font-variant-ligatures: normal; font-variant-caps: normal; font-weight: 400; letter-spacing: normal; orphans: 2; text-align: center; text-indent: 0px; text-transform: none; widows: 2; word-spacing: 0px; -webkit-text-stroke-width: 0px; background-color: rgb(251, 251, 251); text-decoration-thickness: initial; text-decoration-style: initial; text-decoration-color: initial; float: none; display: inline !important;&quot;&gt;Include mainwindow.h&lt;/span&gt;&lt;br style=&quot;border-color: var(--border-color); color: rgb(0, 0, 0); font-family: Helvetica; font-size: 12px; font-style: normal; font-variant-ligatures: normal; font-variant-caps: normal; font-weight: 400; letter-spacing: normal; orphans: 2; text-align: center; text-indent: 0px; text-transform: none; widows: 2; word-spacing: 0px; -webkit-text-stroke-width: 0px; background-color: rgb(251, 251, 251); text-decoration-thickness: initial; text-decoration-style: initial; text-decoration-color: initial;&quot;&gt;&lt;span style=&quot;color: rgb(0, 0, 0); font-family: Helvetica; font-size: 12px; font-style: normal; font-variant-ligatures: normal; font-variant-caps: normal; font-weight: 400; letter-spacing: normal; orphans: 2; text-align: center; text-indent: 0px; text-transform: none; widows: 2; word-spacing: 0px; -webkit-text-stroke-width: 0px; background-color: rgb(251, 251, 251); text-decoration-thickness: initial; text-decoration-style: initial; text-decoration-color: initial; float: none; display: inline !important;&quot;&gt;| Create QApplication |&lt;/span&gt;&lt;br style=&quot;border-color: var(--border-color); color: rgb(0, 0, 0); font-family: Helvetica; font-size: 12px; font-style: normal; font-variant-ligatures: normal; font-variant-caps: normal; font-weight: 400; letter-spacing: normal; orphans: 2; text-align: center; text-indent: 0px; text-transform: none; widows: 2; word-spacing: 0px; -webkit-text-stroke-width: 0px; background-color: rgb(251, 251, 251); text-decoration-thickness: initial; text-decoration-style: initial; text-decoration-color: initial;&quot;&gt;&lt;span style=&quot;color: rgb(0, 0, 0); font-family: Helvetica; font-size: 12px; font-style: normal; font-variant-ligatures: normal; font-variant-caps: normal; font-weight: 400; letter-spacing: normal; orphans: 2; text-align: center; text-indent: 0px; text-transform: none; widows: 2; word-spacing: 0px; -webkit-text-stroke-width: 0px; background-color: rgb(251, 251, 251); text-decoration-thickness: initial; text-decoration-style: initial; text-decoration-color: initial; float: none; display: inline !important;&quot;&gt;| Create MainWindow |&lt;/span&gt;&lt;br style=&quot;border-color: var(--border-color); color: rgb(0, 0, 0); font-family: Helvetica; font-size: 12px; font-style: normal; font-variant-ligatures: normal; font-variant-caps: normal; font-weight: 400; letter-spacing: normal; orphans: 2; text-align: center; text-indent: 0px; text-transform: none; widows: 2; word-spacing: 0px; -webkit-text-stroke-width: 0px; background-color: rgb(251, 251, 251); text-decoration-thickness: initial; text-decoration-style: initial; text-decoration-color: initial;&quot;&gt;&lt;span style=&quot;color: rgb(0, 0, 0); font-family: Helvetica; font-size: 12px; font-style: normal; font-variant-ligatures: normal; font-variant-caps: normal; font-weight: 400; letter-spacing: normal; orphans: 2; text-align: center; text-indent: 0px; text-transform: none; widows: 2; word-spacing: 0px; -webkit-text-stroke-width: 0px; background-color: rgb(251, 251, 251); text-decoration-thickness: initial; text-decoration-style: initial; text-decoration-color: initial; float: none; display: inline !important;&quot;&gt;| Show MainWindow |&lt;/span&gt;&lt;br style=&quot;border-color: var(--border-color); color: rgb(0, 0, 0); font-family: Helvetica; font-size: 12px; font-style: normal; font-variant-ligatures: normal; font-variant-caps: normal; font-weight: 400; letter-spacing: normal; orphans: 2; text-align: center; text-indent: 0px; text-transform: none; widows: 2; word-spacing: 0px; -webkit-text-stroke-width: 0px; background-color: rgb(251, 251, 251); text-decoration-thickness: initial; text-decoration-style: initial; text-decoration-color: initial;&quot;&gt;&lt;span style=&quot;color: rgb(0, 0, 0); font-family: Helvetica; font-size: 12px; font-style: normal; font-variant-ligatures: normal; font-variant-caps: normal; font-weight: 400; letter-spacing: normal; orphans: 2; text-align: center; text-indent: 0px; text-transform: none; widows: 2; word-spacing: 0px; -webkit-text-stroke-width: 0px; background-color: rgb(251, 251, 251); text-decoration-thickness: initial; text-decoration-style: initial; text-decoration-color: initial; float: none; display: inline !important;&quot;&gt;| Run Application |&lt;/span&gt;&#xa;&#xa;" style="shape=process;whiteSpace=wrap;html=1;backgroundOutline=1;" vertex="1" parent="WIyWlLk6GJQsqaUBKTNV-1">
          <mxGeometry x="110" y="176" width="220" height="106" as="geometry" />
        </mxCell>
        <mxCell id="dmKS9OR7HiVcDCAen5_6-32" value="" style="shape=image;verticalLabelPosition=bottom;labelBackgroundColor=default;verticalAlign=top;aspect=fixed;imageAspect=0;image=data:image/png,iVBORw0KGgoAAAANSUhEUgAAACAAAAAgCAYAAABzenr0AAAACXBIWXMAAAsTAAALEwEAmpwYAAAAjklEQVR4nGNgGAVYgIGq5n9KsL6q5h99Fc0YhoFygAGljjCAGtK+5yDJGATiSqsoc4QBhQ4A0RQ5woAKDkB3hKGyZizdHdBOriMMqOgAEI4tKoM7gi4OwAZgZtLcAe048KgDDIZFFJACRtNA+7DMBaSA4RkC7SPeAaSA0ShoH02Ee4ZDNjSgAR4aDhhRAAB4ZnMrY984hAAAAABJRU5ErkJggg==;" vertex="1" parent="WIyWlLk6GJQsqaUBKTNV-1">
          <mxGeometry x="110" y="176" width="32" height="32" as="geometry" />
        </mxCell>
        <mxCell id="dmKS9OR7HiVcDCAen5_6-44" value="" style="edgeStyle=orthogonalEdgeStyle;rounded=0;orthogonalLoop=1;jettySize=auto;html=1;" edge="1" parent="WIyWlLk6GJQsqaUBKTNV-1" source="dmKS9OR7HiVcDCAen5_6-35" target="dmKS9OR7HiVcDCAen5_6-41">
          <mxGeometry relative="1" as="geometry">
            <Array as="points">
              <mxPoint x="220" y="430" />
              <mxPoint x="220" y="430" />
            </Array>
          </mxGeometry>
        </mxCell>
        <mxCell id="dmKS9OR7HiVcDCAen5_6-35" value="&#xa;&lt;span style=&quot;color: rgb(0, 0, 0); font-family: Helvetica; font-size: 12px; font-style: normal; font-variant-ligatures: normal; font-variant-caps: normal; font-weight: 400; letter-spacing: normal; orphans: 2; text-align: center; text-indent: 0px; text-transform: none; widows: 2; word-spacing: 0px; -webkit-text-stroke-width: 0px; background-color: rgb(251, 251, 251); text-decoration-thickness: initial; text-decoration-style: initial; text-decoration-color: initial; float: none; display: inline !important;&quot;&gt;mainwindow.h&lt;/span&gt;&lt;br style=&quot;border-color: var(--border-color); color: rgb(0, 0, 0); font-family: Helvetica; font-size: 12px; font-style: normal; font-variant-ligatures: normal; font-variant-caps: normal; font-weight: 400; letter-spacing: normal; orphans: 2; text-align: center; text-indent: 0px; text-transform: none; widows: 2; word-spacing: 0px; -webkit-text-stroke-width: 0px; background-color: rgb(251, 251, 251); text-decoration-thickness: initial; text-decoration-style: initial; text-decoration-color: initial;&quot;&gt;&lt;span style=&quot;color: rgb(0, 0, 0); font-family: Helvetica; font-size: 12px; font-style: normal; font-variant-ligatures: normal; font-variant-caps: normal; font-weight: 400; letter-spacing: normal; orphans: 2; text-align: center; text-indent: 0px; text-transform: none; widows: 2; word-spacing: 0px; -webkit-text-stroke-width: 0px; background-color: rgb(251, 251, 251); text-decoration-thickness: initial; text-decoration-style: initial; text-decoration-color: initial; float: none; display: inline !important;&quot;&gt;Declare MainWindow class&lt;/span&gt;&#xa;&#xa;" style="shape=process;whiteSpace=wrap;html=1;backgroundOutline=1;" vertex="1" parent="WIyWlLk6GJQsqaUBKTNV-1">
          <mxGeometry x="120" y="320" width="200" height="70" as="geometry" />
        </mxCell>
        <mxCell id="dmKS9OR7HiVcDCAen5_6-37" value="" style="shape=image;verticalLabelPosition=bottom;labelBackgroundColor=default;verticalAlign=top;aspect=fixed;imageAspect=0;image=data:image/png,iVBORw0KGgoAAAANSUhEUgAAACAAAAAgCAYAAABzenr0AAAACXBIWXMAAAsTAAALEwEAmpwYAAAAjklEQVR4nGNgGAVYgIGq5n9KsL6q5h99Fc0YhoFygAGljjCAGtK+5yDJGATiSqsoc4QBhQ4A0RQ5woAKDkB3hKGyZizdHdBOriMMqOgAEI4tKoM7gi4OwAZgZtLcAe048KgDDIZFFJACRtNA+7DMBaSA4RkC7SPeAaSA0ShoH02Ee4ZDNjSgAR4aDhhRAAB4ZnMrY984hAAAAABJRU5ErkJggg==;" vertex="1" parent="WIyWlLk6GJQsqaUBKTNV-1">
          <mxGeometry x="118" y="320" width="32" height="32" as="geometry" />
        </mxCell>
        <mxCell id="dmKS9OR7HiVcDCAen5_6-38" value="" style="shape=process;whiteSpace=wrap;html=1;backgroundOutline=1;" vertex="1" parent="WIyWlLk6GJQsqaUBKTNV-1">
          <mxGeometry x="20" y="450" width="890" height="1180" as="geometry" />
        </mxCell>
        <mxCell id="dmKS9OR7HiVcDCAen5_6-40" value="#Include mainwindow.h&lt;br&gt;&lt;div style=&quot;&quot;&gt;#include &amp;lt;QVBoxLayout&amp;gt;&lt;/div&gt;&lt;div style=&quot;&quot;&gt;#include &amp;lt;QFile&amp;gt;&lt;/div&gt;&lt;div style=&quot;&quot;&gt;#include &amp;lt;QTextStream&amp;gt;&lt;/div&gt;#include &amp;lt;QLabel&amp;gt;&lt;br style=&quot;border-color: var(--border-color); color: rgb(0, 0, 0); font-family: Helvetica; font-size: 12px; font-style: normal; font-variant-ligatures: normal; font-variant-caps: normal; font-weight: 400; letter-spacing: normal; orphans: 2; text-align: center; text-indent: 0px; text-transform: none; widows: 2; word-spacing: 0px; -webkit-text-stroke-width: 0px; background-color: rgb(251, 251, 251); text-decoration-thickness: initial; text-decoration-style: initial; text-decoration-color: initial;&quot;&gt;&lt;span style=&quot;color: rgb(0, 0, 0); font-family: Helvetica; font-size: 12px; font-style: normal; font-variant-ligatures: normal; font-variant-caps: normal; font-weight: 400; letter-spacing: normal; orphans: 2; text-align: center; text-indent: 0px; text-transform: none; widows: 2; word-spacing: 0px; -webkit-text-stroke-width: 0px; background-color: rgb(251, 251, 251); text-decoration-thickness: initial; text-decoration-style: initial; text-decoration-color: initial; float: none; display: inline !important;&quot;&gt;&amp;nbsp;Create QWidget&amp;nbsp;&lt;/span&gt;&lt;br style=&quot;border-color: var(--border-color); color: rgb(0, 0, 0); font-family: Helvetica; font-size: 12px; font-style: normal; font-variant-ligatures: normal; font-variant-caps: normal; font-weight: 400; letter-spacing: normal; orphans: 2; text-align: center; text-indent: 0px; text-transform: none; widows: 2; word-spacing: 0px; -webkit-text-stroke-width: 0px; background-color: rgb(251, 251, 251); text-decoration-thickness: initial; text-decoration-style: initial; text-decoration-color: initial;&quot;&gt;&lt;span style=&quot;color: rgb(0, 0, 0); font-family: Helvetica; font-size: 12px; font-style: normal; font-variant-ligatures: normal; font-variant-caps: normal; font-weight: 400; letter-spacing: normal; orphans: 2; text-align: center; text-indent: 0px; text-transform: none; widows: 2; word-spacing: 0px; -webkit-text-stroke-width: 0px; background-color: rgb(251, 251, 251); text-decoration-thickness: initial; text-decoration-style: initial; text-decoration-color: initial; float: none; display: inline !important;&quot;&gt;&amp;nbsp;Create QVBoxLayout&amp;nbsp;&lt;/span&gt;&lt;br style=&quot;border-color: var(--border-color); color: rgb(0, 0, 0); font-family: Helvetica; font-size: 12px; font-style: normal; font-variant-ligatures: normal; font-variant-caps: normal; font-weight: 400; letter-spacing: normal; orphans: 2; text-align: center; text-indent: 0px; text-transform: none; widows: 2; word-spacing: 0px; -webkit-text-stroke-width: 0px; background-color: rgb(251, 251, 251); text-decoration-thickness: initial; text-decoration-style: initial; text-decoration-color: initial;&quot;&gt;&lt;span style=&quot;color: rgb(0, 0, 0); font-family: Helvetica; font-size: 12px; font-style: normal; font-variant-ligatures: normal; font-variant-caps: normal; font-weight: 400; letter-spacing: normal; orphans: 2; text-align: center; text-indent: 0px; text-transform: none; widows: 2; word-spacing: 0px; -webkit-text-stroke-width: 0px; background-color: rgb(251, 251, 251); text-decoration-thickness: initial; text-decoration-style: initial; text-decoration-color: initial; float: none; display: inline !important;&quot;&gt;&amp;nbsp;Create QSqlDatabase&amp;nbsp;&lt;/span&gt;&lt;br style=&quot;border-color: var(--border-color); color: rgb(0, 0, 0); font-family: Helvetica; font-size: 12px; font-style: normal; font-variant-ligatures: normal; font-variant-caps: normal; font-weight: 400; letter-spacing: normal; orphans: 2; text-align: center; text-indent: 0px; text-transform: none; widows: 2; word-spacing: 0px; -webkit-text-stroke-width: 0px; background-color: rgb(251, 251, 251); text-decoration-thickness: initial; text-decoration-style: initial; text-decoration-color: initial;&quot;&gt;&lt;span style=&quot;color: rgb(0, 0, 0); font-family: Helvetica; font-size: 12px; font-style: normal; font-variant-ligatures: normal; font-variant-caps: normal; font-weight: 400; letter-spacing: normal; orphans: 2; text-align: center; text-indent: 0px; text-transform: none; widows: 2; word-spacing: 0px; -webkit-text-stroke-width: 0px; background-color: rgb(251, 251, 251); text-decoration-thickness: initial; text-decoration-style: initial; text-decoration-color: initial; float: none; display: inline !important;&quot;&gt;&amp;nbsp;Create UI components&lt;/span&gt;&lt;br style=&quot;border-color: var(--border-color); color: rgb(0, 0, 0); font-family: Helvetica; font-size: 12px; font-style: normal; font-variant-ligatures: normal; font-variant-caps: normal; font-weight: 400; letter-spacing: normal; orphans: 2; text-align: center; text-indent: 0px; text-transform: none; widows: 2; word-spacing: 0px; -webkit-text-stroke-width: 0px; background-color: rgb(251, 251, 251); text-decoration-thickness: initial; text-decoration-style: initial; text-decoration-color: initial;&quot;&gt;&lt;span style=&quot;color: rgb(0, 0, 0); font-family: Helvetica; font-size: 12px; font-style: normal; font-variant-ligatures: normal; font-variant-caps: normal; font-weight: 400; letter-spacing: normal; orphans: 2; text-align: center; text-indent: 0px; text-transform: none; widows: 2; word-spacing: 0px; -webkit-text-stroke-width: 0px; background-color: rgb(251, 251, 251); text-decoration-thickness: initial; text-decoration-style: initial; text-decoration-color: initial; float: none; display: inline !important;&quot;&gt;&amp;nbsp;Connect signals&amp;nbsp;&lt;/span&gt;&lt;br style=&quot;border-color: var(--border-color); color: rgb(0, 0, 0); font-family: Helvetica; font-size: 12px; font-style: normal; font-variant-ligatures: normal; font-variant-caps: normal; font-weight: 400; letter-spacing: normal; orphans: 2; text-align: center; text-indent: 0px; text-transform: none; widows: 2; word-spacing: 0px; -webkit-text-stroke-width: 0px; background-color: rgb(251, 251, 251); text-decoration-thickness: initial; text-decoration-style: initial; text-decoration-color: initial;&quot;&gt;&lt;span style=&quot;color: rgb(0, 0, 0); font-family: Helvetica; font-size: 12px; font-style: normal; font-variant-ligatures: normal; font-variant-caps: normal; font-weight: 400; letter-spacing: normal; orphans: 2; text-align: center; text-indent: 0px; text-transform: none; widows: 2; word-spacing: 0px; -webkit-text-stroke-width: 0px; background-color: rgb(251, 251, 251); text-decoration-thickness: initial; text-decoration-style: initial; text-decoration-color: initial; float: none; display: inline !important;&quot;&gt;&amp;nbsp;and slots&amp;nbsp;&lt;/span&gt;" style="text;whiteSpace=wrap;html=1;" vertex="1" parent="WIyWlLk6GJQsqaUBKTNV-1">
          <mxGeometry x="180" y="480" width="160" height="170" as="geometry" />
        </mxCell>
        <mxCell id="dmKS9OR7HiVcDCAen5_6-41" value="mainwindow.cpp" style="text;html=1;align=center;verticalAlign=middle;resizable=0;points=[];autosize=1;" vertex="1" parent="WIyWlLk6GJQsqaUBKTNV-1">
          <mxGeometry x="180" y="450" width="110" height="30" as="geometry" />
        </mxCell>
        <mxCell id="dmKS9OR7HiVcDCAen5_6-42" value="" style="shape=image;verticalLabelPosition=bottom;labelBackgroundColor=default;verticalAlign=top;aspect=fixed;imageAspect=0;image=data:image/png,iVBORw0KGgoAAAANSUhEUgAAACAAAAAgCAYAAABzenr0AAAACXBIWXMAAAsTAAALEwEAmpwYAAAAjklEQVR4nGNgGAVYgIGq5n9KsL6q5h99Fc0YhoFygAGljjCAGtK+5yDJGATiSqsoc4QBhQ4A0RQ5woAKDkB3hKGyZizdHdBOriMMqOgAEI4tKoM7gi4OwAZgZtLcAe048KgDDIZFFJACRtNA+7DMBaSA4RkC7SPeAaSA0ShoH02Ee4ZDNjSgAR4aDhhRAAB4ZnMrY984hAAAAABJRU5ErkJggg==;" vertex="1" parent="WIyWlLk6GJQsqaUBKTNV-1">
          <mxGeometry x="120" y="460" width="32" height="32" as="geometry" />
        </mxCell>
        <mxCell id="dmKS9OR7HiVcDCAen5_6-99" value="" style="edgeStyle=orthogonalEdgeStyle;rounded=0;orthogonalLoop=1;jettySize=auto;html=1;" edge="1" parent="WIyWlLk6GJQsqaUBKTNV-1" source="dmKS9OR7HiVcDCAen5_6-49" target="dmKS9OR7HiVcDCAen5_6-98">
          <mxGeometry relative="1" as="geometry" />
        </mxCell>
        <mxCell id="dmKS9OR7HiVcDCAen5_6-49" value="" style="rounded=1;whiteSpace=wrap;html=1;absoluteArcSize=1;arcSize=14;strokeWidth=2;" vertex="1" parent="WIyWlLk6GJQsqaUBKTNV-1">
          <mxGeometry x="118" y="670" width="672" height="270" as="geometry" />
        </mxCell>
        <mxCell id="dmKS9OR7HiVcDCAen5_6-50" value="updateUnitBoxes()" style="text;html=1;align=center;verticalAlign=middle;resizable=0;points=[];autosize=1;strokeColor=#82b366;fillColor=#d5e8d4;" vertex="1" parent="WIyWlLk6GJQsqaUBKTNV-1">
          <mxGeometry x="125" y="670" width="120" height="30" as="geometry" />
        </mxCell>
        <mxCell id="dmKS9OR7HiVcDCAen5_6-72" value="" style="edgeStyle=orthogonalEdgeStyle;rounded=0;orthogonalLoop=1;jettySize=auto;html=1;" edge="1" parent="WIyWlLk6GJQsqaUBKTNV-1" source="dmKS9OR7HiVcDCAen5_6-51" target="dmKS9OR7HiVcDCAen5_6-65">
          <mxGeometry relative="1" as="geometry" />
        </mxCell>
        <mxCell id="dmKS9OR7HiVcDCAen5_6-51" value="start" style="strokeWidth=2;html=1;shape=mxgraph.flowchart.start_1;whiteSpace=wrap;" vertex="1" parent="WIyWlLk6GJQsqaUBKTNV-1">
          <mxGeometry x="185" y="710" width="40" height="20" as="geometry" />
        </mxCell>
        <mxCell id="dmKS9OR7HiVcDCAen5_6-61" value="" style="edgeStyle=orthogonalEdgeStyle;rounded=0;orthogonalLoop=1;jettySize=auto;html=1;" edge="1" parent="WIyWlLk6GJQsqaUBKTNV-1" source="dmKS9OR7HiVcDCAen5_6-56" target="dmKS9OR7HiVcDCAen5_6-58">
          <mxGeometry relative="1" as="geometry">
            <mxPoint x="205" y="800" as="sourcePoint" />
            <Array as="points">
              <mxPoint x="205" y="870" />
              <mxPoint x="210" y="870" />
            </Array>
          </mxGeometry>
        </mxCell>
        <mxCell id="dmKS9OR7HiVcDCAen5_6-62" value="true" style="edgeLabel;html=1;align=center;verticalAlign=middle;resizable=0;points=[];" vertex="1" connectable="0" parent="dmKS9OR7HiVcDCAen5_6-61">
          <mxGeometry x="0.9063" relative="1" as="geometry">
            <mxPoint y="3" as="offset" />
          </mxGeometry>
        </mxCell>
        <mxCell id="dmKS9OR7HiVcDCAen5_6-74" value="true" style="edgeLabel;html=1;align=center;verticalAlign=middle;resizable=0;points=[];" vertex="1" connectable="0" parent="dmKS9OR7HiVcDCAen5_6-61">
          <mxGeometry x="0.4" y="1" relative="1" as="geometry">
            <mxPoint x="-1" y="-16" as="offset" />
          </mxGeometry>
        </mxCell>
        <mxCell id="dmKS9OR7HiVcDCAen5_6-58" value="Update to Mass unit" style="rounded=1;whiteSpace=wrap;html=1;absoluteArcSize=1;arcSize=14;strokeWidth=2;" vertex="1" parent="WIyWlLk6GJQsqaUBKTNV-1">
          <mxGeometry x="155" y="890" width="100" height="30" as="geometry" />
        </mxCell>
        <mxCell id="dmKS9OR7HiVcDCAen5_6-78" value="" style="edgeStyle=orthogonalEdgeStyle;rounded=0;orthogonalLoop=1;jettySize=auto;html=1;" edge="1" parent="WIyWlLk6GJQsqaUBKTNV-1" source="dmKS9OR7HiVcDCAen5_6-64" target="dmKS9OR7HiVcDCAen5_6-77">
          <mxGeometry relative="1" as="geometry" />
        </mxCell>
        <mxCell id="dmKS9OR7HiVcDCAen5_6-79" value="true" style="edgeLabel;html=1;align=center;verticalAlign=middle;resizable=0;points=[];" vertex="1" connectable="0" parent="dmKS9OR7HiVcDCAen5_6-78">
          <mxGeometry x="-0.32" y="1" relative="1" as="geometry">
            <mxPoint as="offset" />
          </mxGeometry>
        </mxCell>
        <mxCell id="dmKS9OR7HiVcDCAen5_6-81" value="" style="edgeStyle=orthogonalEdgeStyle;rounded=0;orthogonalLoop=1;jettySize=auto;html=1;" edge="1" parent="WIyWlLk6GJQsqaUBKTNV-1" source="dmKS9OR7HiVcDCAen5_6-64" target="dmKS9OR7HiVcDCAen5_6-80">
          <mxGeometry relative="1" as="geometry" />
        </mxCell>
        <mxCell id="dmKS9OR7HiVcDCAen5_6-82" value="False" style="edgeLabel;html=1;align=center;verticalAlign=middle;resizable=0;points=[];" vertex="1" connectable="0" parent="dmKS9OR7HiVcDCAen5_6-81">
          <mxGeometry x="-0.12" y="2" relative="1" as="geometry">
            <mxPoint as="offset" />
          </mxGeometry>
        </mxCell>
        <mxCell id="dmKS9OR7HiVcDCAen5_6-64" value="Length" style="strokeWidth=2;html=1;shape=mxgraph.flowchart.decision;whiteSpace=wrap;" vertex="1" parent="WIyWlLk6GJQsqaUBKTNV-1">
          <mxGeometry x="280" y="810" width="60" height="40" as="geometry" />
        </mxCell>
        <mxCell id="dmKS9OR7HiVcDCAen5_6-73" value="" style="edgeStyle=orthogonalEdgeStyle;rounded=0;orthogonalLoop=1;jettySize=auto;html=1;" edge="1" parent="WIyWlLk6GJQsqaUBKTNV-1" source="dmKS9OR7HiVcDCAen5_6-65" target="dmKS9OR7HiVcDCAen5_6-56">
          <mxGeometry relative="1" as="geometry" />
        </mxCell>
        <mxCell id="dmKS9OR7HiVcDCAen5_6-65" value="Get Conversion Type" style="strokeWidth=2;html=1;shape=mxgraph.flowchart.decision;whiteSpace=wrap;" vertex="1" parent="WIyWlLk6GJQsqaUBKTNV-1">
          <mxGeometry x="130" y="750" width="150" height="40" as="geometry" />
        </mxCell>
        <mxCell id="dmKS9OR7HiVcDCAen5_6-75" value="" style="edgeStyle=orthogonalEdgeStyle;rounded=0;orthogonalLoop=1;jettySize=auto;html=1;" edge="1" parent="WIyWlLk6GJQsqaUBKTNV-1" source="dmKS9OR7HiVcDCAen5_6-56" target="dmKS9OR7HiVcDCAen5_6-64">
          <mxGeometry relative="1" as="geometry" />
        </mxCell>
        <mxCell id="dmKS9OR7HiVcDCAen5_6-76" value="False" style="edgeLabel;html=1;align=center;verticalAlign=middle;resizable=0;points=[];" vertex="1" connectable="0" parent="dmKS9OR7HiVcDCAen5_6-75">
          <mxGeometry x="-0.2" y="-1" relative="1" as="geometry">
            <mxPoint as="offset" />
          </mxGeometry>
        </mxCell>
        <mxCell id="dmKS9OR7HiVcDCAen5_6-56" value="&lt;div style=&quot;text-align: left;&quot;&gt;mass&lt;/div&gt;" style="strokeWidth=2;html=1;shape=mxgraph.flowchart.decision;whiteSpace=wrap;" vertex="1" parent="WIyWlLk6GJQsqaUBKTNV-1">
          <mxGeometry x="175" y="810" width="60" height="40" as="geometry" />
        </mxCell>
        <mxCell id="dmKS9OR7HiVcDCAen5_6-77" value="Update to Length unit" style="rounded=1;whiteSpace=wrap;html=1;absoluteArcSize=1;arcSize=14;strokeWidth=2;" vertex="1" parent="WIyWlLk6GJQsqaUBKTNV-1">
          <mxGeometry x="270" y="890" width="100" height="30" as="geometry" />
        </mxCell>
        <mxCell id="dmKS9OR7HiVcDCAen5_6-84" value="" style="edgeStyle=orthogonalEdgeStyle;rounded=0;orthogonalLoop=1;jettySize=auto;html=1;" edge="1" parent="WIyWlLk6GJQsqaUBKTNV-1" source="dmKS9OR7HiVcDCAen5_6-80" target="dmKS9OR7HiVcDCAen5_6-83">
          <mxGeometry relative="1" as="geometry" />
        </mxCell>
        <mxCell id="dmKS9OR7HiVcDCAen5_6-85" value="true" style="edgeLabel;html=1;align=center;verticalAlign=middle;resizable=0;points=[];" vertex="1" connectable="0" parent="dmKS9OR7HiVcDCAen5_6-84">
          <mxGeometry x="-0.1" y="3" relative="1" as="geometry">
            <mxPoint as="offset" />
          </mxGeometry>
        </mxCell>
        <mxCell id="dmKS9OR7HiVcDCAen5_6-87" value="" style="edgeStyle=orthogonalEdgeStyle;rounded=0;orthogonalLoop=1;jettySize=auto;html=1;" edge="1" parent="WIyWlLk6GJQsqaUBKTNV-1" source="dmKS9OR7HiVcDCAen5_6-80" target="dmKS9OR7HiVcDCAen5_6-86">
          <mxGeometry relative="1" as="geometry" />
        </mxCell>
        <mxCell id="dmKS9OR7HiVcDCAen5_6-88" value="False" style="edgeLabel;html=1;align=center;verticalAlign=middle;resizable=0;points=[];" vertex="1" connectable="0" parent="dmKS9OR7HiVcDCAen5_6-87">
          <mxGeometry x="-0.2667" y="-1" relative="1" as="geometry">
            <mxPoint as="offset" />
          </mxGeometry>
        </mxCell>
        <mxCell id="dmKS9OR7HiVcDCAen5_6-80" value="Temperature" style="strokeWidth=2;html=1;shape=mxgraph.flowchart.decision;whiteSpace=wrap;" vertex="1" parent="WIyWlLk6GJQsqaUBKTNV-1">
          <mxGeometry x="390" y="810" width="100" height="40" as="geometry" />
        </mxCell>
        <mxCell id="dmKS9OR7HiVcDCAen5_6-83" value="Update to Temperature unit" style="rounded=1;whiteSpace=wrap;html=1;absoluteArcSize=1;arcSize=14;strokeWidth=2;" vertex="1" parent="WIyWlLk6GJQsqaUBKTNV-1">
          <mxGeometry x="390" y="890" width="100" height="30" as="geometry" />
        </mxCell>
        <mxCell id="dmKS9OR7HiVcDCAen5_6-90" value="" style="edgeStyle=orthogonalEdgeStyle;rounded=0;orthogonalLoop=1;jettySize=auto;html=1;" edge="1" parent="WIyWlLk6GJQsqaUBKTNV-1" source="dmKS9OR7HiVcDCAen5_6-86" target="dmKS9OR7HiVcDCAen5_6-89">
          <mxGeometry relative="1" as="geometry" />
        </mxCell>
        <mxCell id="dmKS9OR7HiVcDCAen5_6-91" value="true" style="edgeLabel;html=1;align=center;verticalAlign=middle;resizable=0;points=[];" vertex="1" connectable="0" parent="dmKS9OR7HiVcDCAen5_6-90">
          <mxGeometry x="-0.3714" y="-3" relative="1" as="geometry">
            <mxPoint as="offset" />
          </mxGeometry>
        </mxCell>
        <mxCell id="dmKS9OR7HiVcDCAen5_6-93" value="" style="edgeStyle=orthogonalEdgeStyle;rounded=0;orthogonalLoop=1;jettySize=auto;html=1;" edge="1" parent="WIyWlLk6GJQsqaUBKTNV-1" source="dmKS9OR7HiVcDCAen5_6-86" target="dmKS9OR7HiVcDCAen5_6-92">
          <mxGeometry relative="1" as="geometry" />
        </mxCell>
        <mxCell id="dmKS9OR7HiVcDCAen5_6-94" value="False" style="edgeLabel;html=1;align=center;verticalAlign=middle;resizable=0;points=[];" vertex="1" connectable="0" parent="dmKS9OR7HiVcDCAen5_6-93">
          <mxGeometry x="-0.0667" y="-1" relative="1" as="geometry">
            <mxPoint as="offset" />
          </mxGeometry>
        </mxCell>
        <mxCell id="dmKS9OR7HiVcDCAen5_6-86" value="Time" style="strokeWidth=2;html=1;shape=mxgraph.flowchart.decision;whiteSpace=wrap;" vertex="1" parent="WIyWlLk6GJQsqaUBKTNV-1">
          <mxGeometry x="550" y="812.5" width="80" height="35" as="geometry" />
        </mxCell>
        <mxCell id="dmKS9OR7HiVcDCAen5_6-89" value="Update to Temperature unit" style="rounded=1;whiteSpace=wrap;html=1;absoluteArcSize=1;arcSize=14;strokeWidth=2;" vertex="1" parent="WIyWlLk6GJQsqaUBKTNV-1">
          <mxGeometry x="530" y="890" width="100" height="30" as="geometry" />
        </mxCell>
        <mxCell id="dmKS9OR7HiVcDCAen5_6-96" value="" style="edgeStyle=orthogonalEdgeStyle;rounded=0;orthogonalLoop=1;jettySize=auto;html=1;" edge="1" parent="WIyWlLk6GJQsqaUBKTNV-1" source="dmKS9OR7HiVcDCAen5_6-92" target="dmKS9OR7HiVcDCAen5_6-95">
          <mxGeometry relative="1" as="geometry" />
        </mxCell>
        <mxCell id="dmKS9OR7HiVcDCAen5_6-97" value="true" style="edgeLabel;html=1;align=center;verticalAlign=middle;resizable=0;points=[];" vertex="1" connectable="0" parent="dmKS9OR7HiVcDCAen5_6-96">
          <mxGeometry x="-0.1886" relative="1" as="geometry">
            <mxPoint as="offset" />
          </mxGeometry>
        </mxCell>
        <mxCell id="dmKS9OR7HiVcDCAen5_6-92" value="Currency" style="strokeWidth=2;html=1;shape=mxgraph.flowchart.decision;whiteSpace=wrap;" vertex="1" parent="WIyWlLk6GJQsqaUBKTNV-1">
          <mxGeometry x="690" y="812.5" width="80" height="35" as="geometry" />
        </mxCell>
        <mxCell id="dmKS9OR7HiVcDCAen5_6-95" value="Update to Temperature unit" style="rounded=1;whiteSpace=wrap;html=1;absoluteArcSize=1;arcSize=14;strokeWidth=2;" vertex="1" parent="WIyWlLk6GJQsqaUBKTNV-1">
          <mxGeometry x="670" y="890" width="100" height="30" as="geometry" />
        </mxCell>
        <mxCell id="dmKS9OR7HiVcDCAen5_6-122" value="" style="edgeStyle=orthogonalEdgeStyle;rounded=0;orthogonalLoop=1;jettySize=auto;html=1;" edge="1" parent="WIyWlLk6GJQsqaUBKTNV-1" source="dmKS9OR7HiVcDCAen5_6-98" target="dmKS9OR7HiVcDCAen5_6-121">
          <mxGeometry relative="1" as="geometry" />
        </mxCell>
        <mxCell id="dmKS9OR7HiVcDCAen5_6-98" value="" style="rounded=1;whiteSpace=wrap;html=1;absoluteArcSize=1;arcSize=14;strokeWidth=2;" vertex="1" parent="WIyWlLk6GJQsqaUBKTNV-1">
          <mxGeometry x="114" y="970" width="680" height="310" as="geometry" />
        </mxCell>
        <mxCell id="dmKS9OR7HiVcDCAen5_6-113" value="" style="edgeStyle=orthogonalEdgeStyle;rounded=0;orthogonalLoop=1;jettySize=auto;html=1;" edge="1" parent="WIyWlLk6GJQsqaUBKTNV-1" source="dmKS9OR7HiVcDCAen5_6-100" target="dmKS9OR7HiVcDCAen5_6-111">
          <mxGeometry relative="1" as="geometry" />
        </mxCell>
        <mxCell id="dmKS9OR7HiVcDCAen5_6-100" value="Get Input Values" style="shape=parallelogram;html=1;strokeWidth=2;perimeter=parallelogramPerimeter;whiteSpace=wrap;rounded=1;arcSize=12;size=0.23;" vertex="1" parent="WIyWlLk6GJQsqaUBKTNV-1">
          <mxGeometry x="347" y="1129" width="132.5" height="30" as="geometry" />
        </mxCell>
        <mxCell id="dmKS9OR7HiVcDCAen5_6-105" value="" style="edgeStyle=orthogonalEdgeStyle;rounded=0;orthogonalLoop=1;jettySize=auto;html=1;" edge="1" parent="WIyWlLk6GJQsqaUBKTNV-1" source="dmKS9OR7HiVcDCAen5_6-101" target="dmKS9OR7HiVcDCAen5_6-104">
          <mxGeometry relative="1" as="geometry" />
        </mxCell>
        <mxCell id="dmKS9OR7HiVcDCAen5_6-101" value="Start" style="strokeWidth=2;html=1;shape=mxgraph.flowchart.start_1;whiteSpace=wrap;" vertex="1" parent="WIyWlLk6GJQsqaUBKTNV-1">
          <mxGeometry x="160" y="1010" width="75" height="30" as="geometry" />
        </mxCell>
        <mxCell id="dmKS9OR7HiVcDCAen5_6-102" value="performConversion()" style="text;html=1;align=center;verticalAlign=middle;resizable=0;points=[];autosize=1;strokeColor=#82b366;fillColor=#d5e8d4;" vertex="1" parent="WIyWlLk6GJQsqaUBKTNV-1">
          <mxGeometry x="120" y="970" width="130" height="30" as="geometry" />
        </mxCell>
        <mxCell id="dmKS9OR7HiVcDCAen5_6-109" value="" style="edgeStyle=orthogonalEdgeStyle;rounded=0;orthogonalLoop=1;jettySize=auto;html=1;" edge="1" parent="WIyWlLk6GJQsqaUBKTNV-1" source="dmKS9OR7HiVcDCAen5_6-104" target="dmKS9OR7HiVcDCAen5_6-106">
          <mxGeometry relative="1" as="geometry" />
        </mxCell>
        <mxCell id="dmKS9OR7HiVcDCAen5_6-104" value="Select Conversion Type" style="strokeWidth=2;html=1;shape=mxgraph.flowchart.decision;whiteSpace=wrap;" vertex="1" parent="WIyWlLk6GJQsqaUBKTNV-1">
          <mxGeometry x="114" y="1072" width="180" height="50" as="geometry" />
        </mxCell>
        <mxCell id="dmKS9OR7HiVcDCAen5_6-110" value="" style="edgeStyle=orthogonalEdgeStyle;rounded=0;orthogonalLoop=1;jettySize=auto;html=1;" edge="1" parent="WIyWlLk6GJQsqaUBKTNV-1" source="dmKS9OR7HiVcDCAen5_6-106" target="dmKS9OR7HiVcDCAen5_6-100">
          <mxGeometry relative="1" as="geometry" />
        </mxCell>
        <mxCell id="dmKS9OR7HiVcDCAen5_6-106" value="Select From and To units type" style="strokeWidth=2;html=1;shape=mxgraph.flowchart.decision;whiteSpace=wrap;" vertex="1" parent="WIyWlLk6GJQsqaUBKTNV-1">
          <mxGeometry x="106" y="1146" width="196" height="50" as="geometry" />
        </mxCell>
        <mxCell id="dmKS9OR7HiVcDCAen5_6-115" value="" style="edgeStyle=orthogonalEdgeStyle;rounded=0;orthogonalLoop=1;jettySize=auto;html=1;" edge="1" parent="WIyWlLk6GJQsqaUBKTNV-1" source="dmKS9OR7HiVcDCAen5_6-111" target="dmKS9OR7HiVcDCAen5_6-114">
          <mxGeometry relative="1" as="geometry" />
        </mxCell>
        <mxCell id="dmKS9OR7HiVcDCAen5_6-111" value="Perform Conversion" style="rounded=1;whiteSpace=wrap;html=1;absoluteArcSize=1;arcSize=14;strokeWidth=2;" vertex="1" parent="WIyWlLk6GJQsqaUBKTNV-1">
          <mxGeometry x="520" y="1122" width="100" height="44" as="geometry" />
        </mxCell>
        <mxCell id="dmKS9OR7HiVcDCAen5_6-118" value="" style="edgeStyle=orthogonalEdgeStyle;rounded=0;orthogonalLoop=1;jettySize=auto;html=1;" edge="1" parent="WIyWlLk6GJQsqaUBKTNV-1" source="dmKS9OR7HiVcDCAen5_6-114" target="dmKS9OR7HiVcDCAen5_6-116">
          <mxGeometry relative="1" as="geometry" />
        </mxCell>
        <mxCell id="dmKS9OR7HiVcDCAen5_6-114" value="Display Data" style="shape=parallelogram;html=1;strokeWidth=2;perimeter=parallelogramPerimeter;whiteSpace=wrap;rounded=1;arcSize=12;size=0.23;" vertex="1" parent="WIyWlLk6GJQsqaUBKTNV-1">
          <mxGeometry x="660" y="1129" width="110" height="29" as="geometry" />
        </mxCell>
        <mxCell id="dmKS9OR7HiVcDCAen5_6-120" value="" style="edgeStyle=orthogonalEdgeStyle;rounded=0;orthogonalLoop=1;jettySize=auto;html=1;" edge="1" parent="WIyWlLk6GJQsqaUBKTNV-1" source="dmKS9OR7HiVcDCAen5_6-116" target="dmKS9OR7HiVcDCAen5_6-119">
          <mxGeometry relative="1" as="geometry" />
        </mxCell>
        <mxCell id="dmKS9OR7HiVcDCAen5_6-116" value="Update History Text" style="rounded=1;whiteSpace=wrap;html=1;absoluteArcSize=1;arcSize=14;strokeWidth=2;" vertex="1" parent="WIyWlLk6GJQsqaUBKTNV-1">
          <mxGeometry x="675" y="1190" width="80" height="50" as="geometry" />
        </mxCell>
        <mxCell id="dmKS9OR7HiVcDCAen5_6-119" value="Log to File" style="rounded=1;whiteSpace=wrap;html=1;absoluteArcSize=1;arcSize=14;strokeWidth=2;" vertex="1" parent="WIyWlLk6GJQsqaUBKTNV-1">
          <mxGeometry x="540" y="1196" width="100" height="38" as="geometry" />
        </mxCell>
        <mxCell id="dmKS9OR7HiVcDCAen5_6-121" value="" style="rounded=1;whiteSpace=wrap;html=1;absoluteArcSize=1;arcSize=14;strokeWidth=2;" vertex="1" parent="WIyWlLk6GJQsqaUBKTNV-1">
          <mxGeometry x="119" y="1320" width="670" height="260" as="geometry" />
        </mxCell>
        <mxCell id="dmKS9OR7HiVcDCAen5_6-123" value="showHistory()" style="text;html=1;align=center;verticalAlign=middle;resizable=0;points=[];autosize=1;strokeColor=#82b366;fillColor=#d5e8d4;" vertex="1" parent="WIyWlLk6GJQsqaUBKTNV-1">
          <mxGeometry x="125" y="1320" width="100" height="30" as="geometry" />
        </mxCell>
        <mxCell id="dmKS9OR7HiVcDCAen5_6-126" value="" style="edgeStyle=orthogonalEdgeStyle;rounded=0;orthogonalLoop=1;jettySize=auto;html=1;" edge="1" parent="WIyWlLk6GJQsqaUBKTNV-1" source="dmKS9OR7HiVcDCAen5_6-124" target="dmKS9OR7HiVcDCAen5_6-125">
          <mxGeometry relative="1" as="geometry" />
        </mxCell>
        <mxCell id="dmKS9OR7HiVcDCAen5_6-124" value="start" style="strokeWidth=2;html=1;shape=mxgraph.flowchart.start_1;whiteSpace=wrap;" vertex="1" parent="WIyWlLk6GJQsqaUBKTNV-1">
          <mxGeometry x="185" y="1360" width="60" height="30" as="geometry" />
        </mxCell>
        <mxCell id="dmKS9OR7HiVcDCAen5_6-128" value="" style="edgeStyle=orthogonalEdgeStyle;rounded=0;orthogonalLoop=1;jettySize=auto;html=1;" edge="1" parent="WIyWlLk6GJQsqaUBKTNV-1" source="dmKS9OR7HiVcDCAen5_6-125" target="dmKS9OR7HiVcDCAen5_6-127">
          <mxGeometry relative="1" as="geometry" />
        </mxCell>
        <mxCell id="dmKS9OR7HiVcDCAen5_6-129" value="True" style="edgeLabel;html=1;align=center;verticalAlign=middle;resizable=0;points=[];" vertex="1" connectable="0" parent="dmKS9OR7HiVcDCAen5_6-128">
          <mxGeometry x="-0.1199" y="-3" relative="1" as="geometry">
            <mxPoint as="offset" />
          </mxGeometry>
        </mxCell>
        <mxCell id="dmKS9OR7HiVcDCAen5_6-131" value="" style="edgeStyle=orthogonalEdgeStyle;rounded=0;orthogonalLoop=1;jettySize=auto;html=1;" edge="1" parent="WIyWlLk6GJQsqaUBKTNV-1" source="dmKS9OR7HiVcDCAen5_6-125" target="dmKS9OR7HiVcDCAen5_6-130">
          <mxGeometry relative="1" as="geometry" />
        </mxCell>
        <mxCell id="dmKS9OR7HiVcDCAen5_6-132" value="False" style="edgeLabel;html=1;align=center;verticalAlign=middle;resizable=0;points=[];" vertex="1" connectable="0" parent="dmKS9OR7HiVcDCAen5_6-131">
          <mxGeometry x="-0.1486" y="-2" relative="1" as="geometry">
            <mxPoint as="offset" />
          </mxGeometry>
        </mxCell>
        <mxCell id="dmKS9OR7HiVcDCAen5_6-125" value="historyList-&amp;gt;isHidden()&amp;nbsp;" style="strokeWidth=2;html=1;shape=mxgraph.flowchart.decision;whiteSpace=wrap;" vertex="1" parent="WIyWlLk6GJQsqaUBKTNV-1">
          <mxGeometry x="127.5" y="1420" width="175" height="40" as="geometry" />
        </mxCell>
        <mxCell id="dmKS9OR7HiVcDCAen5_6-127" value="Clear and show history List" style="rounded=1;whiteSpace=wrap;html=1;absoluteArcSize=1;arcSize=14;strokeWidth=2;" vertex="1" parent="WIyWlLk6GJQsqaUBKTNV-1">
          <mxGeometry x="140" y="1530" width="150" height="40" as="geometry" />
        </mxCell>
        <mxCell id="dmKS9OR7HiVcDCAen5_6-130" value="historyList-&amp;gt;hide()" style="rounded=1;whiteSpace=wrap;html=1;absoluteArcSize=1;arcSize=14;strokeWidth=2;" vertex="1" parent="WIyWlLk6GJQsqaUBKTNV-1">
          <mxGeometry x="400" y="1425" width="100" height="30" as="geometry" />
        </mxCell>
      </root>
    </mxGraphModel>
  </diagram>
</mxfile>
